<svg id="Layer_1" data-name="Layer 1" xmlns="http://www.w3.org/2000/svg" xmlns:xlink="http://www.w3.org/1999/xlink" viewBox="0 0 1920 1080"><defs><style>.cls-1{fill:none;}.cls-2{clip-path:url(#clip-path);}.cls-3{fill:#fff;}.cls-4{opacity:0.13;}.cls-5{fill:#5b8eaf;opacity:0.31;isolation:isolate;}.cls-6{fill:#847062;opacity:0.79;}.cls-7{fill:#839a82;}</style><clipPath id="clip-path"><rect class="cls-1" width="1920" height="1080"/></clipPath></defs><g class="cls-2"><rect class="cls-3" width="1920" height="1080"/><g id="Group_3" data-name="Group 3" class="cls-4"><path id="Path_4" data-name="Path 4" class="cls-5" d="M118.24,292.06c-15.07-8.28-33.22-13.64-44.53-25.48-20.09-21-41.58-25.29-64.51-11.11-33.87,20.94-68.79,18-104.11,9-9.24-2.34-22.36-11.57-23.38-19-1.66-12.17,2.85-26.73,9-38,8.3-15.34,22.36-27.58,30.79-42.88C-52.17,116.66-21.09,74,30.58,50c22-10.25,38.77-27.27,20.75-57.66-12-20.19-6.74-39.68,12.26-53.4,14.43-10.43,29.52-21.3,46-27.27,32-11.59,48.78-4,69.61,23,7,9,17.54,15.59,27.16,22.29,21.4,14.93,44.91,27.32,64.4,44.34s16.41,36.46-6,49.52c-17,9.9-31.86,17.86-28.86,42,.87,7-9.93,15.5-15.7,23.07-12.14,16-26.86,30.57-35.89,48.09-5.45,10.57-6.19,26.94-2.22,38.35C201.56,258.18,181.81,286.65,118.24,292.06Z"/><path id="Path_5" data-name="Path 5" class="cls-5" d="M726.68,101.73C715,95.29,700.84,91.12,692,81.91c-15.62-16.35-32.34-19.68-50.19-8.64-26.35,16.29-53.52,14-81,7-7.19-1.82-17.4-9-18.19-14.8-1.29-9.48,2.22-20.8,7-29.6,6.46-11.94,17.4-21.47,24-33.37,20.53-37.25,44.7-70.43,84.9-89.12,17.14-8,30.17-21.22,16.15-44.86-9.32-15.71-5.25-30.87,9.53-41.55,11.24-8.11,23-16.57,35.82-21.21,24.93-9,38-3.1,54.17,17.88,5.44,7,13.65,12.13,21.14,17.34,16.65,11.61,34.94,21.25,50.11,34.49s12.76,28.38-4.7,38.53c-13.24,7.7-24.79,13.9-22.45,32.69.67,5.41-7.73,12.06-12.21,17.95-9.46,12.42-20.9,23.78-27.93,37.42-4.24,8.22-4.81,21-1.72,29.83C791.51,75.38,776.15,97.53,726.68,101.73Z"/><path id="Path_6" data-name="Path 6" class="cls-5" d="M505.62,528.8c-5.7.27-12.62-.67-18.74,1.12C466,536,445.54,543.2,424.81,549.63,406,555.47,391,548.07,378.1,535c-13.67-13.82-21.1-30-11.53-48.6,5.35-10.4,14.54-18.78,21.31-28.54,9.53-13.75,18.14-28.11,27.69-41.83,5.43-7.81,11.12-15.8,18.16-22.07,10.6-9.43,21.75-18.73,34-25.77,26.34-15.15,42.09-36.35,48.74-66.29,5.14-23.1,21.64-38.4,44.19-47.25,10.3-4.05,19.86-10.06,29.52-15.6,21.9-12.55,45-14.4,66.5-1.93,21.07,12.2,19.79,33.68,14.93,54.07-5.14,21.58-10.38,41.32,1.47,64,5.46,10.48-4.56,28.33-5.59,43-.89,12.56-2.57,26.93,2.34,37.7C689,478,684.18,496.79,647.29,525.46c-7.92,6.16-11.2,20.46-13.14,31.62-6.4,36.74-18.34,48.76-54.62,53.58-8.65,1.14-16.94,5.46-25.22,8.75-19.31,7.67-41-2.84-43.17-22C508.72,575.79,507.58,554,505.62,528.8Z"/><path id="Path_7" data-name="Path 7" class="cls-5" d="M29.92,630c.38-3.22-.27-6.79,1.2-8.82,13.89-19.06,15-37.81,5.74-60.23-7.68-18.52-.73-36.84,17-49,7.42-5.08,14.86-10.19,22.63-14.72,19.45-11.33,22.07-26.8,12-45.67q-4.75-8.9-9.7-17.72c-7.38-13.14-16.83-26.77-4.87-41.27,14.57-17.66,33.93-27.31,57.44-25,19.07,1.86,25.92,16.84,29.54,32.5,5.5,23.88,11.14,47.42,37.65,56.61,12.28,4.25,25.61,8.25,38.32,7.85,20.34-.64,36.05,4,49.49,20.28,7.7,9.33,20.45,14.36,29.95,22.45,9.33,8,19.6,16.12,25.51,26.43,7.44,13,2.93,26.12-12.76,29.8-27.55,6.46-37.94,24-38.12,50.4-.08,12.52-6,18.37-19.69,18.29-78.15-.49-156.32-.29-234.47-.41C34.77,631.71,32.76,630.72,29.92,630Z"/><path id="Path_8" data-name="Path 8" class="cls-5" d="M509.09,108.12c-.07,1.5.24,3.13-.26,4.46-12.85,34.1-11.07,63.68,14.56,94.16,16.94,20.15,4.64,42.21-23.45,57.5-22.93,12.47-37.46,9-52.33-15.8-10.67-17.78-22.06-28.36-45.06-30.83-34.52-3.72-48.81-18.69-33.15-52.54,13.69-29.58-2.29-56.91-19.41-81.35-15.34-21.88-20.66-44.06-9.28-69.46C350-6.38,361.06-11.3,378.88,3c15.59,12.54,28.74,28.26,42,43.38C435.43,62.93,450.17,74.27,475,70.1,498.68,66.14,509.61,80.4,509.09,108.12Z"/><path id="Path_9" data-name="Path 9" class="cls-5" d="M960.43,246.9c-.07,1.5.24,3.13-.26,4.46-12.85,34.1-11.07,63.68,14.56,94.15,16.94,20.16,4.64,42.22-23.45,57.5-22.93,12.48-37.46,9-52.33-15.8-10.67-17.77-22.06-28.35-45.06-30.82-34.51-3.72-48.81-18.69-33.15-52.54,13.69-29.59-2.29-56.91-19.41-81.35C786,200.62,780.67,178.44,792.05,153c9.25-20.64,20.36-25.57,38.17-11.24,15.59,12.53,28.74,28.25,42,43.38,14.52,16.52,29.27,27.87,54.12,23.7C950,204.92,961,219.18,960.43,246.9Z"/><path id="Path_10" data-name="Path 10" class="cls-5" d="M215.28,828.26c-.07,1.5.24,3.13-.26,4.46-12.85,34.1-11.07,63.69,14.56,94.16,16.94,20.15,4.64,42.21-23.45,57.5-22.93,12.47-37.46,9-52.33-15.8-10.67-17.77-22.05-28.35-45.06-30.83C74.23,934,59.93,919.06,75.59,885.22c13.69-29.59-2.28-56.92-19.41-81.35C40.84,782,35.52,759.8,46.9,734.41c9.25-20.65,20.36-25.57,38.17-11.25,15.59,12.54,28.74,28.26,42,43.39,14.51,16.52,29.26,27.87,54.12,23.7C204.87,786.28,215.81,800.55,215.28,828.26Z"/><path id="Path_11" data-name="Path 11" class="cls-5" d="M216.1,342.83c20.4-26.06,12.6-68.92,45.16-95.26,26.79-21.68,46.07-19.58,62.92,10,4.09,7.19,11.57,13.17,18.77,17.73,8.77,5.56,19.39,8.19,28.32,13.56,23.86,14.33,26.55,34.14,4.12,49.61-18.11,12.5-26.9,26-24.86,47.85.58,6.22-4.78,13-7.42,19.5-6.81-3.7-15.74-5.79-20.05-11.39-17.65-23-39-30.12-67.26-22.77C230.33,378.33,215.49,368.24,216.1,342.83Z"/><path id="Path_12" data-name="Path 12" class="cls-5" d="M1259-365.91c15.07,8.27,33.22,13.64,44.53,25.48,20.09,21,41.58,25.29,64.51,11.11,33.87-20.94,68.79-17.95,104.11-9,9.24,2.33,22.36,11.56,23.38,19,1.66,12.18-2.85,26.74-9,38-8.3,15.35-22.36,27.59-30.79,42.89-26.37,47.87-57.45,90.51-109.12,114.54-22,10.24-38.78,27.27-20.75,57.65,12,20.2,6.74,39.68-12.26,53.41-14.44,10.43-29.52,21.3-46,27.27-32,11.59-48.79,4-69.61-23-7-9-17.55-15.59-27.16-22.3-21.4-14.92-44.91-27.31-64.4-44.33s-16.41-36.46,6-49.52c17-9.9,31.86-17.86,28.86-42-.87-6.95,9.93-15.5,15.7-23.07,12.15-16,26.86-30.57,35.9-48.09,5.45-10.57,6.18-26.94,2.21-38.35C1175.63-332,1195.38-360.5,1259-365.91Z"/><path id="Path_13" data-name="Path 13" class="cls-5" d="M1757.54,22.22c5.87,16.16,16,32.16,16.67,48.52,1.25,29,14.58,46.43,41.18,50.89,39.26,6.59,63.54,31.87,84.2,61.87,5.41,7.86,9.18,23.45,5,29.73-6.78,10.25-19.77,18.22-31.82,22.69-16.36,6.06-35,6-51.42,11.93C1770,266.45,1718.5,278,1663.81,262c-23.32-6.83-47.13-5.07-53.62,29.66-4.31,23.08-21.09,34.27-44.43,32.06-17.73-1.67-36.24-3.45-52.6-9.85-31.73-12.42-39.3-29.19-37.17-63.19.71-11.39-2.91-23.28-5.72-34.67-6.24-25.32-15.75-50.15-19.18-75.79S1462.8,102,1488.28,107c19.32,3.77,35.73,7.58,49.39-12.55,3.94-5.8,17.69-5.1,27-7,19.66-4,40.35-5.27,58.7-12.49,11.07-4.35,22.41-16.17,26.95-27.36C1672.57-7.25,1706.18-15.64,1757.54,22.22Z"/><path id="Path_15" data-name="Path 15" class="cls-5" d="M1675.11-41.51c-32.34-3.41-59,2.7-77.13,35.44-14.53,26.2-35.18,25.81-56.33,4.42C1528-15.5,1514-22.71,1493.65-13c-21.6,10.38-40.35,1.52-60.4-24.87-16.66-21.91-16-36.15-3.64-56.89,5.81-9.73,7.5-23.69,6.44-35.32-2.22-24.66,5.13-37.24,29.14-35.75s39.29-8.21,53-26.41c18-23.79,32.27-26,55.29-8.69,21.53,16.14,40.39,36,71.68,29.32,4.41-.94,11.59,7.69,16.48,12.83,20.77,21.82,42.22,43.15,61.06,66.55,5.87,7.29,7.7,21.48,5.08,30.75-2.25,7.95-12.5,16.17-21,19.18C1697.48-39,1686.07-41.51,1675.11-41.51Z"/><path id="Path_17" data-name="Path 17" class="cls-5" d="M1216.84,105.51c10.14-7.86,18-19,24.85-18.42,34.33,2.65,57.37-15,81.27-35.75,23.38-20.28,42.27-12,47.2,18.31a255.25,255.25,0,0,1,3,38c.19,16,2.09,29.17,21.35,34.32,4.86,1.3,7,12.7,10.38,19.46-6,3-12.16,8.72-18,8.46-26.1-1.18-52.25-3.13-78.1-6.85-9-1.29-18.13-7.22-25.33-13.25-14.84-12.43-27.11-27.9-49.29-28.53C1229.55,121.09,1225.2,113.41,1216.84,105.51Z"/><path id="Path_19" data-name="Path 19" class="cls-5" d="M1981.91,819.4c-10-2.6-20.16-4.76-30-7.88-33.79-10.7-66.86-19.36-103.73-11.69-20.37,4.24-43.15-1.78-64.68-4.46-27.66-3.45-37.65,6.85-29.07,32.67,5.55,16.73,15.34,31.72,7.76,51.49-1.86,4.84,9.8,19.15,18.07,22.81,42.78,18.93,44.5,51.78,37.08,91.12-4,21-2,43.21-1.54,64.86.29,14.64,6.93,22.06,24,21.66,47.35-1.09,94.74-.2,142.11-.08Z"/><path id="Path_20" data-name="Path 20" class="cls-5" d="M1261.44,739.71c15.07-8.28,33.21-13.64,44.53-25.48,20.08-21,41.57-25.29,64.51-11.11,33.87,20.94,68.79,17.94,104.11,9,9.24-2.34,22.36-11.57,23.37-19,1.66-12.18-2.84-26.74-9-38-8.3-15.34-22.35-27.58-30.78-42.88-26.38-47.87-57.45-90.52-109.13-114.55-22-10.24-38.77-27.27-20.75-57.65,12-20.2,6.75-39.68-12.25-53.4-14.44-10.44-29.53-21.3-46-27.28-32-11.58-48.79-4-69.62,23-7,9-17.54,15.59-27.15,22.29-21.4,14.93-44.91,27.32-64.4,44.33s-16.41,36.47,6,49.53c17,9.9,31.86,17.86,28.86,42-.87,6.95,9.93,15.5,15.7,23.07,12.14,16,26.85,30.57,35.9,48.09,5.45,10.57,6.18,26.94,2.21,38.35C1178.12,705.83,1197.86,734.3,1261.44,739.71Z"/><path id="Path_21" data-name="Path 21" class="cls-5" d="M874.06,976.45c5.7.27,12.62-.67,18.74,1.12,20.84,6.07,41.33,13.28,62.07,19.71,18.81,5.84,33.81-1.55,46.71-14.6,13.67-13.82,21.1-30,11.53-48.6-5.35-10.4-14.54-18.78-21.31-28.54-9.53-13.74-18.14-28.11-27.69-41.83-5.43-7.81-11.12-15.8-18.16-22.07-10.6-9.43-21.75-18.73-34-25.77-26.34-15.15-42.09-36.35-48.74-66.28-5.14-23.1-21.65-38.4-44.19-47.26-10.3-4.05-19.86-10.06-29.52-15.6-21.9-12.55-45-14.4-66.5-1.92-21.07,12.2-19.79,33.67-14.93,54.06,5.14,21.58,10.38,41.33-1.47,64-5.46,10.48,4.56,28.33,5.59,43,.89,12.56,2.56,26.93-2.34,37.7-19.17,42.08-14.36,60.85,22.53,89.52,7.92,6.16,11.2,20.46,13.14,31.61,6.4,36.75,18.34,48.76,54.63,53.58,8.64,1.15,16.93,5.47,25.21,8.75,19.31,7.67,41-2.84,43.17-22C871,1023.45,872.09,1001.64,874.06,976.45Z"/><path id="Path_22" data-name="Path 22" class="cls-5" d="M476.48,926.44c5.7.27,12.62-.67,18.74,1.12,20.84,6.07,41.33,13.28,62.07,19.71,18.81,5.84,33.81-1.56,46.71-14.6,13.67-13.82,21.1-30,11.53-48.6-5.35-10.4-14.54-18.78-21.31-28.54-9.53-13.74-18.14-28.11-27.69-41.83-5.43-7.81-11.12-15.8-18.16-22.07-10.6-9.43-21.75-18.73-34-25.77-26.34-15.15-42.09-36.35-48.74-66.28-5.14-23.1-21.64-38.4-44.19-47.26-10.3-4.05-19.86-10.06-29.52-15.6-21.9-12.55-45-14.4-66.5-1.92-21.07,12.2-19.79,33.67-14.93,54.06,5.14,21.58,10.38,41.33-1.47,64-5.46,10.48,4.56,28.33,5.59,43,.89,12.56,2.57,26.93-2.34,37.7-19.17,42.08-14.36,60.85,22.53,89.52,7.92,6.16,11.2,20.46,13.15,31.61,6.4,36.75,18.33,48.76,54.62,53.58,8.64,1.15,16.93,5.47,25.21,8.75,19.31,7.67,41-2.84,43.18-22C473.37,973.44,474.51,951.63,476.48,926.44Z"/><path id="Path_23" data-name="Path 23" class="cls-5" d="M1954.53,674.51c-2.92-8.37-10-23.43-13.23-39.27-3.43-17-4-34.67-4.29-52.08-.22-15.57,3.25-31.26,2.37-46.75-1.06-18.51-10.52-29-31.5-24.06-15,3.56-27.2,3.21-39.8-11.09-17-19.28-53.29-14.85-69.61,5.46-12.4,15.43-26.28,26.69-47.45,25.11a8.45,8.45,0,0,0-4.44.62c-41.1,22.4-83.08,43.4-122.77,68-16.51,10.25-13.44,65.27,3.1,76.06,7.66,5,22.52,5.73,30.84,1.71,19.3-9.32,34.08-6.79,48.89,7.45,14.32,13.77,31.72,19.06,51.75,16.72,7.33-.85,18-2.52,21.88,1.37,19.75,19.81,35.41,6.14,51.76-4.1,17.08-10.7,30.28-8.75,41.51,9.24,10.13,16.24,22.2,31.35,45.51,23.32C1939.87,725.1,1954.42,704.64,1954.53,674.51Z"/><path id="Path_24" data-name="Path 24" class="cls-5" d="M1349.75,1077.63c-.38-3.22.28-6.79-1.2-8.82-13.88-19.07-15-37.81-5.73-60.23,7.68-18.52.73-36.84-17-49-7.42-5.09-14.87-10.19-22.64-14.72-19.45-11.34-22.07-26.8-12-45.67q4.77-8.91,9.71-17.72c7.37-13.14,16.83-26.77,4.86-41.28-14.56-17.66-33.92-27.31-57.43-25-19.08,1.85-25.93,16.83-29.54,32.5-5.51,23.88-11.15,47.42-37.66,56.61-12.27,4.25-25.61,8.25-38.32,7.85-20.33-.64-36,4-49.48,20.28-7.7,9.33-20.45,14.35-30,22.45-9.33,8-19.61,16.11-25.52,26.42-7.43,13-2.93,26.13,12.77,29.8,27.55,6.46,37.94,24.05,38.11,50.4.08,12.53,6,18.38,19.69,18.29,78.16-.49,156.32-.28,234.48-.4C1344.91,1079.36,1346.92,1078.37,1349.75,1077.63Z"/><path id="Path_25" data-name="Path 25" class="cls-5" d="M1425.41,967.77c26.43-13.18,56.72-6.38,88.14,3.45,26.85,8.41,47.44-7.3,64.88-26.49,12.53-13.78,25.12-23.34,46.92-18.12,8.61,2.07,23-7.77,30.5-16,10.17-11.08,11.21-26,.82-39.15-7.9-10-16.72-19.21-24.59-29.2-12.73-16.17-16.54-33-3.57-51.37s12-37.46,2.18-57.24c-14.32-28.95-47.08-33.13-70.5-10.29-11.25,11-26.6,17.67-39.49,27.12-7.36,5.4-13.74,12.21-20.16,18.78-10,10.21-18.28,22.5-29.62,30.77-19.43,14.17-43,21.66-48.52,51.26-2.18,11.76-18.89,22.18-30.9,30.46-16.74,11.55-25.88,23.84-18.38,45C1382.68,953.56,1398.42,968.07,1425.41,967.77Z"/><path id="Path_26" data-name="Path 26" class="cls-5" d="M1677.59,415.3c-32.33,3.42-59-2.7-77.12-35.43-14.53-26.2-35.18-25.82-56.34-4.43-13.7,13.85-27.69,21.06-48,11.31-21.6-10.37-40.34-1.51-60.4,24.88-16.65,21.91-16,36.14-3.64,56.89,5.81,9.73,7.5,23.69,6.45,35.32-2.23,24.65,5.13,37.24,29.14,35.74s39.29,8.21,53,26.42c18,23.78,32.26,26,55.29,8.68,21.53-16.14,40.39-36,71.67-29.32,4.42.94,11.59-7.68,16.49-12.82,20.76-21.82,42.22-43.16,61-66.55,5.88-7.3,7.7-21.49,5.09-30.75-2.25-8-12.5-16.18-21-19.19C1700,412.76,1688.55,415.3,1677.59,415.3Z"/><path id="Path_27" data-name="Path 27" class="cls-5" d="M870.59,555.77c.06,1.49-.25,3.13.26,4.46,12.85,34.1,11.06,63.68-14.56,94.16-16.95,20.15-4.65,42.21,23.45,57.49,22.92,12.47,37.45,9,52.33-15.79,10.66-17.78,22-28.35,45.06-30.83,34.51-3.72,48.81-18.69,33.15-52.54-13.69-29.58,2.28-56.91,19.41-81.35,15.33-21.88,20.66-44.06,9.28-69.46-9.25-20.64-20.36-25.56-38.17-11.24-15.59,12.53-28.75,28.26-42,43.38-14.51,16.52-29.26,27.87-54.12,23.7C881,513.79,870.06,528.05,870.59,555.77Z"/><path id="Path_28" data-name="Path 28" class="cls-5" d="M1562.51,1079.56c35.87,0,75.63.1,115.4-.13,4.88,0,12.77-.37,14.15-3.11,11.84-23.61,36.59-27,56.71-37.64,7.89-4.18,16-8.54,22.55-14.49,15.2-13.9,11.54-29.3-6.6-38.9-11.63-6.15-22.38-14.47-32.33-23.17-16.31-14.27-27.71-14.5-41.57,2.39-9,11-16.46,23.13-24.75,34.66q-15.46,21.48-39.36,9.67c-6.69-3.32-13.49-6.43-20.23-9.66-33.61-16.14-53.09-11.47-71.86,20.18-3.17,5.35,1.72,16.95,5.4,24.43C1545.53,1055,1553.27,1065.14,1562.51,1079.56Z"/><path id="Path_29" data-name="Path 29" class="cls-5" d="M1163.57,790.48c-20.4-26.06-12.6-68.92-45.15-95.26-26.79-21.68-46.08-19.58-62.92,10-4.09,7.19-11.58,13.17-18.77,17.73-8.78,5.56-19.39,8.19-28.33,13.56-23.86,14.33-26.54,34.13-4.12,49.61,18.11,12.5,26.9,26,24.87,47.85-.58,6.22,4.78,13,7.42,19.49,6.8-3.7,15.74-5.78,20-11.38,17.64-23,39-30.12,67.25-22.77C1149.35,826,1164.19,815.89,1163.57,790.48Z"/><path id="Path_30" data-name="Path 30" class="cls-5" d="M861,509.09c-15.1-25.46-3.24-62.58-29.07-89.7-21.27-22.31-38.62-22.67-57,1.66-4.45,5.91-11.78,10.35-18.69,13.56-8.42,3.92-18.14,5-26.68,8.77-22.82,10-27.48,27.22-9.37,43.53,14.62,13.17,20.86,26.15,16.54,45.3-1.23,5.45,2.74,12.06,4.33,18.15,6.47-2.5,14.63-3.32,19.1-7.8,18.29-18.32,38.08-22.21,62.28-12.44C844.25,538.94,858.57,531.7,861,509.09Z"/><path id="Path_31" data-name="Path 31" class="cls-5" d="M1066,2.17c-12.76-1.35-25.23-6.68-30.82-2.6-27.81,20.3-56.71,17.39-87.94,12.32-30.54-5-42.23,12.05-30.52,40.39a255.88,255.88,0,0,0,17.43,33.86c8.25,13.7,13.57,25.91-.11,40.42-3.45,3.66.72,14.48,1.39,22,6.69-.63,14.93,1,19.79-2.29C976.79,131.56,998,116.15,1018,99.4c7-5.81,11.63-15.68,14.58-24.6,6.09-18.37,8.4-38,26.93-50.18C1063.37,22.11,1063,13.28,1066,2.17Z"/><path id="Path_32" data-name="Path 32" class="cls-5" d="M1973.47,409.4c-12.18-12.5-18.76-25.17-27.61-27-14.29-2.95-31.55-16.8-45.47,6.15-5,8.22-22,8.86-33.11,13.85-7.44,3.35-14.17,8.28-21.22,12.49,6.22,6.62,11.4,17.18,18.85,19.13,22.83,6,47,13.13,69.72,10.83C1947.21,443.58,1958,424.34,1973.47,409.4Z"/><path id="Path_33" data-name="Path 33" class="cls-5" d="M1227.07,243.12c-12.18-12.5-18.76-25.17-27.61-27-14.29-3-31.55-16.8-45.47,6.15-5,8.21-22,8.85-33.11,13.85-7.44,3.35-14.17,8.27-21.21,12.49,6.21,6.62,11.39,17.17,18.84,19.12,22.83,6,47,13.13,69.72,10.84C1200.81,277.29,1211.56,258.05,1227.07,243.12Z"/></g></g><path class="cls-6" d="M285.86,915l16.76-1.22L298,850.18a4.44,4.44,0,0,0-4.75-4.1l-7.91.57a4.44,4.44,0,0,0-4.1,4.75l.42,5.72H249.87l1.14-30a4.44,4.44,0,0,0-4.26-4.6l-7.93-.3a4.42,4.42,0,0,0-4.6,4.26l-1.16,30.59H184l-1.29-17.65a4.43,4.43,0,0,0-4.74-4.1l-7.91.57a4.43,4.43,0,0,0-4.1,4.75l1.19,16.43H131.25v-6.41a4.44,4.44,0,0,0-4.44-4.44h-7.93a4.43,4.43,0,0,0-4.43,4.44v6.41h-42l.82-21.64a4.43,4.43,0,0,0-4.26-4.6l-7.93-.31a4.45,4.45,0,0,0-4.6,4.27l-3,79.27,16.79.64.8-21.18h43.36v20.89h16.8V893.57h38.52l1.56,21.4,16.76-1.22-1.47-20.18h45l-.78,20.54,16.79.64.8-21.18H284.3ZM71.46,883.89l.65-17.09h42.34v17.09Zm59.79,0V866.8h36.58l1.24,17.09Zm54.67,0-1.25-17.09h48L232,883.89Zm62.93,0,.65-17.09h32.85l1.25,17.09Z"/><path class="cls-6" d="M1261.16,915l-16.76-1.22,4.63-63.58a4.43,4.43,0,0,1,4.74-4.1l7.91.57a4.44,4.44,0,0,1,4.11,4.75l-.42,5.72h31.78l-1.14-30a4.43,4.43,0,0,1,4.26-4.6l7.93-.3a4.43,4.43,0,0,1,4.6,4.26l1.16,30.59h49.09l1.29-17.65a4.43,4.43,0,0,1,4.74-4.1l7.91.57a4.44,4.44,0,0,1,4.1,4.75l-1.19,16.43h35.87v-6.41a4.44,4.44,0,0,1,4.44-4.44h7.93a4.43,4.43,0,0,1,4.43,4.44v6.41h42l-.82-21.64a4.42,4.42,0,0,1,4.26-4.6l7.92-.31a4.44,4.44,0,0,1,4.6,4.27l3,79.27-16.79.64-.81-21.18h-43.35v20.89h-16.8V893.57h-38.53l-1.55,21.4-16.76-1.22,1.47-20.18h-45.05l.78,20.54-16.79.64-.81-21.18h-35.81Zm214.4-31.09-.65-17.09h-42.34v17.09Zm-59.79,0V866.8h-36.58L1378,883.89Zm-54.67,0,1.25-17.09h-48l.65,17.09Zm-62.94,0-.64-17.09h-32.86l-1.24,17.09Z"/><rect class="cls-7" y="906.77" width="1918.87" height="173.23"/></svg>